PathFileType	4	(X/Y/Z)	C:/Users/beibeiliu/ov580/test_trc/User3\sequence.42_training_dense_right.trc
DataRate	CameraRate	NumFrames	NumMarkers	Units	OrigDataRate	OrigDataStartFrame	OrigNumFrames
120	120	22	19	mm	120	76	101
Frame#	Time	ThumbCMC			ThumbMCP			ThumbIP			ThumbTip			IndexMCP			IndexPIP			IndexTip			MiddleMCP			MiddlePIP			MiddleTip			RingMCP			RingPIP			RingTip			PinkyMCP			PinkyPIP			PinkyTip			BackHand1			BackHand2			BackHand3	
		X0	Y0	Z0	X1	Y1	Z1	X2	Y2	Z2	X3	Y3	Z3	X4	Y4	Z4	X5	Y5	Z5	X6	Y6	Z6	X7	Y7	Z7	X8	Y8	Z8	X9	Y9	Z9	X10	Y10	Z10	X11	Y11	Z11	X12	Y12	Z12	X13	Y13	Z13	X14	Y14	Z14	X15	Y15	Z15	X16	Y16	Z16	X17	Y17	Z17	X18	Y18	Z18	
75	0.625	123.253	53.1611	40.2452	103.238	44.1201	14.3114	98.5287	38.9557	-15.371	110.774	35.7359	-43.4357	119.189	100.548	-20.3128	108.299	111.216	-40.8246	99.2678	121.63	-60.5443	131.821	80.4792	-35.3543	121.197	49.5703	-49.6712	133.618	31.7557	-14.6765	150.701	61.6628	-38.5691	142.123	35.003	-39.3651	148.035	28.7039	-5.63238	170.592	57.1197	-31.9088	159.284	31.5985	-36.9279	160.403	24.6363	-4.54453	177.177	81.0248	11.4913	184.42	68.8777	42.2354	146.935	84.3419	37.4503	
76	0.633333	115.13	55.7935	39.1414	94.2338	48.6095	7.77205	90.132	42.1914	-19.3367	98.6673	36.5448	-45.1085	114.266	102.666	-19.8977	98.0129	115.504	-40.2786	92.3042	126.177	-67.0093	122.228	83.0063	-40.0527	113.264	52.7547	-53.2533	120.877	34.9171	-19.9811	140.749	66.9814	-37.757	133.13	34.7325	-39.494	138.029	30.9825	-8.23691	158.827	59.3081	-34.3439	147.591	34.1333	-38.2408	147.652	28.644	-5.49776	166.915	81.8311	13.0333	178.253	74.3213	36.4632	141.786	84.0225	38.1162	
77	0.641667	115.745	56.4045	29.5784	101.492	42.8195	2.20489	95.3528	33.9171	-26.434	108.031	22.6198	-49.7532	122.913	95.5945	-38.1914	117.329	101.461	-61.8242	116.774	107.09	-86.5163	136.223	66.2167	-51.4975	121.142	39.0411	-58.2593	127.511	24.7662	-21.3709	152.385	46.7624	-47.6472	137.65	23.3299	-41.8906	136.951	21.821	-9.35797	170.584	38.9603	-38.3008	154.044	16.197	-33.4394	153.076	21.8155	-1.94116	173.363	72.9134	2.77789	181.189	66.1286	30.9702	148.112	80.3733	24.4318	
78	0.65	121.644	48.7885	24.3897	106.431	29.5707	-0.942812	105.336	12.6458	-33.5261	125.85	-1.1812	-45.6378	141.584	66.7994	-47.3931	136.278	70.7209	-75.2449	140.25	69.1969	-100.351	152.274	40.4038	-52.6061	139.049	8.66518	-55.8952	134.296	7.23963	-16.8373	165.511	21.0781	-43.4172	150.951	-3.88128	-32.5404	146.163	7.61153	-2.17042	179.118	11.8934	-34.3444	163.796	-6.62369	-25.1565	155.381	5.96903	2.10737	183.562	58.6461	0.280286	184.599	59.7298	32.5593	155.279	70.2746	15.1961	
79	0.658333	127.49	35.3631	22.2902	112.795	12.0775	0.319005	114.798	-8.82476	-18.4666	133.392	-25.223	-32.3461	146.208	39.4844	-54.4216	147.675	32.7483	-79.3343	144.276	28.0893	-101.818	157.372	12.5714	-49.2251	143.705	-17.6135	-45.0364	139.597	-7.66088	-2.91816	171.344	0.729631	-34.8923	154.763	-24.7505	-21.1122	151.763	-6.84522	8.35587	187.418	-10.7333	-24.8802	166.33	-23.6304	-14.8456	161.909	-8.18191	14.1289	189.477	42.3564	1.04169	189.404	49.1546	28.7282	158.926	56.5828	13.6664	
80	0.666667	132.266	32.8748	28.5829	116.273	3.2241	9.51928	114.275	-20.7031	-6.71206	127.353	-42.1588	-18.8299	145.921	23.1985	-49.8857	137.491	13.0522	-72.7223	133.279	0.535893	-93.5909	155.453	-3.63892	-42.0466	141.861	-31.7927	-32.091	137.102	-20.0981	5.9619	170.353	-11.6111	-29.1822	154.316	-34.1784	-14.0966	150.226	-18.4556	16.6517	184.747	-18.1924	-18.8629	166.821	-34.8562	-2.67128	163.54	-14.2804	21.434	190.338	34.6145	0.237513	194.824	43.3811	27.9962	162.66	51.1628	13.5605	
81	0.675	132.137	35.0385	38.1276	113.192	7.6507	24.6125	104.13	-15.8348	8.06205	116.834	-35.1774	-4.5862	127.953	24.2696	-39.7787	115.807	10.5059	-59.7115	105.024	-5.38621	-78.3464	143.766	-3.61322	-38.4974	128.823	-30.1668	-25.1325	127.848	-23.8887	12.0499	159.884	-12.6177	-27.5077	142.716	-34.92	-11.5502	146.493	-24.5743	20.9379	175.796	-19.3875	-17.7388	160.615	-37.2643	-2.94812	155.193	-23.0242	23.1046	186.717	33.2695	3.9235	198.491	42.2155	29.2441	164.628	50.7457	16.8843	
82	0.683333	127.375	45.3724	44.8995	107.692	21.994	31.2193	95.8465	1.27524	12.2998	97.7004	-18.5313	-2.74793	119.267	35.6059	-33.4113	103.274	24.8504	-49.7805	91.2301	8.23899	-62.9736	134.097	19.7028	-37.4465	115.41	-6.18048	-39.5874	117.059	-22.3343	1.58915	150.838	6.68501	-33.1028	134.794	-19.2531	-25.7592	135.154	-23.0761	4.07191	171.745	0.419979	-22.2516	156.359	-24.8881	-18.8796	146.807	-23.6168	8.22765	181.071	42.4098	1.09574	192.652	51.8477	27.2545	157.988	60.444	20.4621	
83	0.691667	133.09	55.2091	45.8357	106.426	38.388	28.3576	90.9099	25.1155	10.2646	85.314	8.98196	-9.90866	124.109	59.7276	-31.7643	103.314	49.2712	-53.3936	88.3874	32.4051	-67.837	143.646	50.1502	-42.7367	125.434	27.7337	-58.9677	114.519	-4.43549	-39.211	159.031	39.607	-37.355	147.432	15.4527	-52.6821	133.338	-7.8565	-29.6353	178.86	25.2909	-32.0124	164.765	3.71432	-41.5936	150.726	-11.4667	-24.8799	186.564	59.614	4.81729	198.51	61.5687	34.4883	161.934	75.1456	25.1683	
84	0.7	137.146	62.3443	40.3301	116.116	50.5318	18.7332	94.6705	41.2678	-2.07495	88.5871	30.5214	-19.3997	130.911	81.388	-35.9202	120.091	72.9077	-61.5201	107.306	59.6981	-81.1172	156.785	75.1938	-44.4501	144.094	60.2639	-74.8162	133.475	25.7221	-82.0766	174.035	66.2388	-44.4227	171.816	48.5868	-68.6536	153.576	22.1049	-70.1078	197.977	49.8633	-29.8878	195.334	34.0139	-54.773	176.386	14.3038	-58.3891	189.218	76.6553	5.63614	201.255	74.2913	34.1979	167.463	83.8614	24.5967	
85	0.708333	141.563	61.8353	32.6456	120.18	52.0192	13.1093	104.435	44.8223	-10.5089	90.0583	36.6727	-26.1175	145.17	84.159	-38.8528	134.112	83.3862	-65.7348	124.719	75.9088	-90.998	168.98	83.196	-51.0175	166.651	76.9952	-77.2842	155.724	53.2128	-106.404	193.717	72.173	-45.8847	189.122	67.1564	-70.7432	184.272	43.2958	-92.8345	211.937	57.527	-33.5961	215.8	49.2282	-55.4717	204.309	30.4196	-74.6777	197.575	78.2321	9.35362	205.459	73.6466	38.8661	173.481	83.7423	27.1588	
86	0.716667	142.667	59.3842	28.1007	121.757	49.2385	10.9517	103.35	43.1583	-14.7074	92.2138	34.151	-28.4836	152.533	79.1412	-47.0929	145.137	76.8595	-68.8436	139.168	73.2526	-98.9645	181.809	78.2441	-52.231	179.506	74.5484	-81.9204	172.922	60.9887	-113.703	203.132	68.7511	-48.3482	201.272	65.764	-73.8293	198.972	53.0486	-99.9484	220.412	54.6284	-31.1123	227.119	50.8348	-54.3653	229.679	40.3115	-74.983	202.973	74.4488	5.43259	208.767	75.432	36.4295	174.892	82.5858	19.652	
87	0.725	146.127	57.4675	25.2639	125.583	48.0365	1.23113	105.817	39.8411	-19.8237	94.5024	31.142	-37.0305	161.363	67.4383	-53.9885	153.425	63.4051	-75.7922	145.014	60.6554	-100.071	187.877	66.8976	-59.5205	185.379	61.8154	-84.7316	187.477	52.1848	-114.43	208.238	58.8321	-49.9395	213.318	54.3225	-74.325	213.646	46.7335	-99.1372	228.793	45.4319	-30.3773	235.781	40.8229	-50.9926	245.96	31.4891	-72.7439	208.733	70.5298	3.70077	209.242	71.0783	30.5877	177.832	77.0734	16.2649	
88	0.733333	147.503	52.4817	19.8867	125.809	41.5499	-1.87965	111.619	32.2452	-23.2141	100.5	21.7417	-41.5906	167.315	53.6552	-58.9632	161.027	48.6203	-86.0298	153.232	43.757	-109.625	196.992	52.7594	-63.7067	195.721	46.8887	-87.549	194.694	37.8558	-119.488	210.759	46.1915	-54.5039	217.841	41.2136	-78.335	226.012	32.7573	-103.46	229.853	36.6638	-31.1322	243.99	29.8164	-50.992	254.457	21.9613	-72.3461	207.779	61.2502	-5.49684	208.438	67.8792	23.2498	178.173	71.849	6.53017	
89	0.741667	149.157	43.7705	10.8225	129.931	31.7516	-5.52997	110.899	23.1995	-27.7704	101.615	12.8022	-41.0319	168.03	44.8459	-61.5369	159.814	42.0128	-84.9364	160.691	39.0274	-113.325	198.3	43.2656	-64.0602	197.169	38.636	-93.2904	197.841	29.3333	-124.119	214.131	36.7899	-56.3778	222.665	31.4396	-76.6756	225.786	25.2651	-102.652	235.349	26.2913	-32.6111	243.898	21.7639	-49.963	257.285	15.6961	-67.6648	212.394	52.8746	-4.4768	213.033	58.7164	21.2775	178.548	63.9378	-0.0245544	
90	0.75	147.996	43.0233	13.3001	127.877	32.1024	-8.13362	110.109	23.4203	-30.5589	96.6862	13.7483	-42.9168	165.3	47.6539	-62.7115	163.332	44.2002	-85.9418	157.505	43.229	-110.287	198.292	45.5529	-62.8156	196.62	42.0101	-92.6864	198.772	35.6466	-121.536	217.346	37.1004	-53.3674	222.71	32.7831	-81.4232	229.135	25.5833	-106.007	233.594	25.4536	-33.0841	248.139	19.5525	-50.7219	256.403	14.1526	-68.395	210.529	51.8142	-8.6462	209.055	58.3423	24.844	178.339	63.3552	0.597821	
91	0.758333	151.369	45.8251	13.077	127.403	36.2642	-8.05885	112.753	25.7951	-24.5827	96.8039	18.1127	-40.1748	168.311	50.9385	-62.1309	159.025	49.3868	-88.5861	155.965	47.92	-111.217	196.692	49.833	-64.5125	196.477	47.2446	-95.7707	197.08	40.9439	-123.955	215.249	42.0398	-55.4985	224.49	37.8241	-81.3786	225.958	31.1298	-103.989	235.905	28.4403	-32.1839	246.474	23.096	-53.7418	255.606	17.8467	-69.8848	212.27	55.3541	-8.3961	212.691	60.4423	23.9396	179.194	65.2031	4.68996	
92	0.766667	148.712	44.4924	13.3592	130.965	33.2275	-4.88731	109.429	25.6165	-22.9536	99.5488	16.0574	-40.1099	163.9	49.7916	-59.7521	156.679	49.3445	-86.6064	155.202	47.131	-109.47	194.551	49.3139	-63.0467	192.199	46.122	-92.7255	197.405	39.474	-119.558	212.419	40.3148	-54.0139	220.58	37.8245	-75.4197	226.96	28.664	-106.128	235.008	27.9842	-35.1359	241.856	23.7817	-49.82	253.645	17.4356	-71.8481	212.017	53.5786	-5.24779	213.687	58.2831	26.689	179.296	61.8193	6.33673	
93	0.775	148.927	43.169	14.8414	127.33	31.9227	-2.15096	108.668	24.6081	-26.1312	93.2212	16.3489	-37.5468	164.211	48.2063	-58.4565	154.995	47.633	-82.8416	155.209	44.1414	-109.703	191.584	47.3364	-60.7553	195.601	42.6657	-93.1539	193.639	35.5086	-122.259	212.546	37.1683	-54.1622	218.346	33.8343	-75.4825	220.895	27.7463	-100.558	231.768	24.8431	-33.557	243.429	20.3116	-50.0194	253.201	13.477	-71.1235	213.412	50.7083	-6.10398	208.648	56.0595	27.8398	179.324	62.5278	3.34167	
94	0.783333	149.777	42.5776	18.2766	128.229	32.3573	-0.140104	107.076	25.404	-24.4457	95.0465	15.463	-41.4652	166.482	47.6775	-60.3413	157.663	47.1599	-86.4546	150.469	45.464	-107.793	193.281	46.8333	-62.9067	194.255	41.7501	-93.0868	194.44	33.9854	-123.103	214.072	37.5843	-54.2411	219.969	32.5785	-75.946	224.884	25.999	-101.146	227.828	24.8519	-32.2363	240.302	20.2247	-51.635	253.421	12.9782	-73.6308	212.367	49.5169	-5.33047	212.045	54.8124	22.2757	177.691	63.9151	7.2867	
95	0.791667	146.874	44.6238	15.8836	126.244	35.256	-1.36324	106.958	26.9301	-26.9596	98.755	17.9159	-41.2218	164.099	50.2543	-57.5857	158.202	48.6103	-85.4852	151.558	46.4737	-107.626	196.388	46.7569	-60.7622	193.896	43.9494	-91.2484	195.904	35.7663	-120.549	211.893	38.8066	-52.3028	217.957	34.3391	-76.4098	223.397	26.7497	-102.214	229.195	26.4029	-34.1274	242.691	19.6477	-53.2936	252.453	12.7828	-70.9398	210.421	53.149	-5.0131	211.988	56.9854	23.3668	181.549	62.7111	3.54506	
96	0.8	146.08	47.7048	14.762	130.432	36.0999	-6.37168	110.742	29.4093	-24.5651	97.6305	20.7494	-42.1766	162.833	53.6154	-59.0069	155.047	52.2295	-82.4929	155.71	49.4679	-107.343	192.748	50.7705	-66.5771	196.623	46.475	-92.2774	193.442	40.2684	-119.842	214.299	39.8338	-52.0496	219.281	35.9683	-81.3539	219.559	29.9231	-106.508	232.828	27.4137	-31.8162	239.726	22.5678	-55.7705	253.104	17.4789	-70.2227	209.027	54.5017	-3.79494	209.336	59.332	22.2692	179.541	65.9618	7.50476	
